
<svg xmlns="http://www.w3.org/2000/svg"  viewBox="0 0 60 60" width="512px" height="512px"><path fill="#e5bc38" d="M59,39a3.995,3.995,0,0,1-4,4H53a4,4,0,1,1,0,8H50a4,4,0,1,1,0,8H42c-7.38,0-15.85-2.72-19.78-4.15A14.13,14.13,0,0,0,17.36,54H13V27h3.74a8.459,8.459,0,0,0,5.99-2.46C25.38,21.88,29,17.44,29,13a37.358,37.358,0,0,0-.52-6.21,5.024,5.024,0,0,1,8.14-4.66A5.075,5.075,0,0,1,38.37,5,34.848,34.848,0,0,1,39,12c0,4.06-.26,8.6-.51,11.11A3.532,3.532,0,0,0,42,27H55a4,4,0,1,1,0,8A4,4,0,0,1,59,39Z"/><rect width="14" height="31" x="1" y="25" fill="#223a75" rx="2"/></svg>
